<svg preserveAspectRatio="xMidYMid meet" data-bbox="15.1 9.6 387.701 126.8" viewBox="15.1 9.6 387.701 126.8" xmlns="http://www.w3.org/2000/svg" data-type="color" role="presentation" aria-hidden="true"><defs><style>#comp-ke3aqbct svg [data-color="1"] {fill: #B0B0B0;}
#comp-ke3aqbct svg [data-color="2"] {fill: #EDEDED;}</style></defs>
    <g>
        <path d="M385.8 13.4c7.4 0 13.3 6 13.3 13.4v92.6c0 7.4-6 13.4-13.3 13.4H32.2c-7.4 0-13.4-6-13.4-13.4V26.7c0-7.4 6-13.4 13.4-13.4h353.6m0-3.7H32.2c-9.5 0-17.1 7.7-17.1 17.1v92.6c0 9.5 7.7 17.1 17.1 17.1h353.5c9.5 0 17.1-7.7 17.1-17.1V26.7c.1-9.4-7.6-17.1-17-17.1z" fill="#1D1D1B" data-color="1"></path>
        <path d="M87.5 79.1l-38.7 38.4 48.9-28.2-10.2-10.2z" fill="#000000" data-color="2"></path>
        <path d="M44.2 37v79.9c0 .3.1.5.2.8l41-40.7-41-40.7c-.1.2-.2.4-.2.7z" fill="#000000" data-color="2"></path>
        <path d="M48.5 36.2l39 38.7 10.3-10.3-49.3-28.4z" fill="#000000" data-color="2"></path>
        <path d="M116.2 75.3l-15.7-9.1L89.7 77l10.8 10.7 15.8-9.1c1.2-.7 1.2-2.6-.1-3.3z" fill="#000000" data-color="2"></path>
        <path d="M313.2 101.5c-1.6 0-3.1-.3-4.4-.9-1.3-.6-2.4-1.5-3.3-2.7h-.3c.2 1.4.3 2.8.3 4.1v10.2h-3.7V76.4h3l.5 3.4h.2c1-1.4 2.1-2.3 3.4-2.9 1.3-.6 2.7-.9 4.4-.9 3.3 0 5.8 1.1 7.6 3.4 1.8 2.2 2.7 5.4 2.7 9.4 0 4.1-.9 7.2-2.7 9.4-2 2.2-4.5 3.3-7.7 3.3zm-.6-22.4c-2.5 0-4.3.7-5.5 2.1-1.1 1.4-1.7 3.6-1.7 6.7v.8c0 3.5.6 6 1.7 7.4 1.2 1.5 3 2.2 5.6 2.2 2.1 0 3.8-.9 5-2.6 1.2-1.7 1.8-4.1 1.8-7.1 0-3.1-.6-5.4-1.8-7.1-1.2-1.6-2.9-2.4-5.1-2.4z" fill="#000000" data-color="2"></path>
        <path d="M332.1 101h-3.7V66h3.7v35z" fill="#000000" data-color="2"></path>
        <path d="M353.6 101l-.7-3.5h-.2c-1.2 1.5-2.5 2.6-3.7 3.1-1.2.5-2.8.8-4.6.8-2.4 0-4.4-.6-5.8-1.9-1.4-1.3-2.1-3.1-2.1-5.4 0-5 4-7.6 12-7.8l4.2-.1v-1.5c0-1.9-.4-3.4-1.3-4.3-.8-.9-2.2-1.4-4-1.4-2.1 0-4.4.6-7 1.9l-1.1-2.9c1.2-.7 2.5-1.2 4-1.6 1.4-.4 2.9-.6 4.4-.6 2.9 0 5.1.7 6.5 2 1.4 1.3 2.1 3.4 2.1 6.3V101h-2.7zm-8.5-2.6c2.3 0 4.2-.6 5.5-1.9 1.3-1.3 2-3.1 2-5.4v-2.2l-3.7.2c-3 .1-5.1.6-6.4 1.4-1.3.8-2 2.1-2 3.8 0 1.4.4 2.4 1.2 3.1.8.7 2 1 3.4 1z" fill="#000000" data-color="2"></path>
        <path d="M358.5 76.4h4l5.4 14.1c1.2 3.2 1.9 5.5 2.2 7h.2c.2-.8.6-2.1 1.2-3.9.6-1.9 2.7-7.6 6.1-17.1h4L371 104.6c-1.1 2.8-2.3 4.7-3.7 5.9-1.4 1.2-3.1 1.7-5.2 1.7-1.1 0-2.3-.1-3.4-.4v-3c.8.2 1.7.3 2.8.3 2.6 0 4.4-1.4 5.5-4.3l1.4-3.5-9.9-24.9z" fill="#000000" data-color="2"></path>
        <path d="M243.9 78.7c1.2 1 3.7 3 3.7 7 0 3.8-2.2 5.6-4.3 7.3-.7.7-1.4 1.4-1.4 2.5s.8 1.8 1.3 2.2l1.9 1.4c2.3 1.9 4.3 3.7 4.3 7.2 0 4.9-4.7 9.8-13.6 9.8-7.5 0-11.1-3.6-11.1-7.4 0-1.9.9-4.5 4-6.3 3.2-2 7.5-2.2 9.9-2.4-.7-.9-1.5-1.9-1.5-3.5 0-.9.3-1.4.5-2-.6.1-1.1.1-1.7.1-5.5 0-8.6-4.1-8.6-8.1 0-2.4 1.1-5 3.3-6.9 2.9-2.4 6.5-2.8 9.2-2.8h10.6l-3.3 1.9h-3.2zm-3.6 22.9c-.4-.1-.7-.1-1.2-.1s-3.3.1-5.4.8c-1.1.4-4.4 1.6-4.4 5.3 0 3.7 3.6 6.3 9.1 6.3 5 0 7.6-2.4 7.6-5.6-.1-2.5-1.8-3.9-5.7-6.7zm1.5-9.8c1.2-1.2 1.3-2.8 1.3-3.8 0-3.7-2.2-9.5-6.5-9.5-1.3 0-2.8.7-3.6 1.7-.9 1.1-1.1 2.5-1.1 3.8 0 3.5 2 9.2 6.5 9.2 1.1 0 2.5-.6 3.4-1.4z" fill="#000000" data-color="2"></path>
        <path d="M211.4 100.8c-8.2 0-12.6-6.4-12.6-12.2 0-6.8 5.5-12.5 13.4-12.5 7.6 0 12.3 5.9 12.3 12.2 0 6-4.7 12.5-13.1 12.5zm6.5-4.2c1.2-1.7 1.5-3.7 1.5-5.7 0-4.5-2.2-13.2-8.6-13.2-1.7 0-3.4.7-4.6 1.8-2 1.8-2.4 4.1-2.4 6.3 0 5.1 2.5 13.5 8.8 13.5 2-.1 4.1-1.1 5.3-2.7z" fill="#000000" data-color="2"></path>
        <path d="M183.5 100.8c-8.2 0-12.6-6.4-12.6-12.2 0-6.8 5.5-12.5 13.4-12.5 7.6 0 12.3 5.9 12.3 12.2 0 6-4.7 12.5-13.1 12.5zm6.4-4.2c1.2-1.7 1.5-3.7 1.5-5.7 0-4.5-2.2-13.2-8.6-13.2-1.7 0-3.4.7-4.6 1.8-2 1.8-2.4 4.1-2.4 6.3 0 5.1 2.5 13.5 8.8 13.5 2.1-.1 4.1-1.1 5.3-2.7z" fill="#000000" data-color="2"></path>
        <path d="M167 99.9l-7.4 1.7c-3 .5-5.7.9-8.5.9-14.3 0-19.7-10.5-19.7-18.8 0-10.1 7.7-19.4 20.9-19.4 2.8 0 5.5.4 7.9 1.1 3.9 1.1 5.7 2.4 6.8 3.2l-4.3 4.1-1.8.4 1.3-2.1c-1.8-1.7-5-4.9-11.1-4.9-8.2 0-14.4 6.2-14.4 15.3 0 9.7 7 18.9 18.3 18.9 3.3 0 5-.7 6.6-1.3v-8.3l-7.8.4L158 89h11l-1.3 1.3c-.4.3-.4.4-.5.8-.1.5-.1 2-.1 2.5v6.3z" fill="#000000" data-color="2"></path>
        <path d="M260.3 98.5c-1.7-.2-2.1-.5-2.1-2.5V66.3c.2-1.8.7-2.1 2.3-3.1h-7.4l-3.9 1.9h4v32c0 1-.2 1.2-1.4 2.7h9.2l1.9-1.1c-.8-.1-1.7-.1-2.6-.2z" fill="#000000" data-color="2"></path>
        <path d="M281.4 98.9c-.6.3-1.1.7-1.7.9-1.7.8-3.5 1-5 1-1.6 0-4.2-.1-6.8-2-3.7-2.6-5.2-7-5.2-10.9 0-8 6.5-11.9 11.8-11.9 1.9 0 3.8.5 5.3 1.4 2.6 1.7 3.2 3.9 3.6 5.1l-12.1 4.9-4 .3c1.3 6.5 5.7 10.3 10.6 10.3 2.6 0 4.5-.9 6.3-1.8l-2.8 2.7zm-4.8-15.3c1-.4 1.5-.7 1.5-1.4 0-2.1-2.3-4.4-5.1-4.4-2.1 0-5.9 1.6-5.9 7.2 0 .9.1 1.8.2 2.7l9.3-4.1z" fill="#000000" data-color="2"></path>
        <path d="M286.4 76.4v3.4h-.4v-3.4h-1.1V76h2.7v.4h-1.2z" fill="#000000" data-color="2"></path>
        <path d="M291 79.8v-3.4l-1 3.4h-.3l-1.1-3.4v3.4h-.4v-3.7h.6l1 3 .9-3h.7v3.7h-.4z" fill="#000000" data-color="2"></path>
        <path d="M133.7 51.5v-15h7.4c2.7 0 4.3 1.7 4.3 3.8 0 1.9-1.2 3.1-2.6 3.4 1.6.2 2.9 1.8 2.9 3.7 0 2.3-1.5 4-4.4 4h-7.6zm8.9-10.7c0-1.1-.8-2-2.1-2h-4.2v3.9h4.2c1.4 0 2.1-.8 2.1-1.9zm.3 6.3c0-1.1-.8-2.1-2.3-2.1h-4.3v4.2h4.3c1.5 0 2.3-.8 2.3-2.1z" fill="#000000" data-color="2"></path>
        <path d="M158.7 51.5l-1.1-2.9h-6.9l-1.1 2.9h-3l5.9-15h3.3l5.9 15h-3zm-4.5-12.3l-2.7 7.1h5.4l-2.7-7.1z" fill="#000000" data-color="2"></path>
        <path d="M163.4 51.5v-15h2.6v15h-2.6z" fill="#000000" data-color="2"></path>
        <path d="M179.2 51.5l-4.2-5.9-4.2 5.9h-3.1l5.6-7.7-5.3-7.3h3.1L175 42l3.8-5.5h3.2l-5.3 7.3 5.6 7.7h-3.1z" fill="#000000" data-color="2"></path>
        <path d="M194.5 51.5l-1.1-2.9h-6.9l-1.1 2.9h-3l5.9-15h3.3l5.9 15h-3zM190 39.2l-2.7 7.1h5.4l-2.7-7.1z" fill="#000000" data-color="2"></path>
        <path d="M207.7 51.5l-3.3-5.6h-2.6v5.6h-2.6v-15h6.6c3 0 4.9 1.9 4.9 4.7 0 2.7-1.8 4.1-3.5 4.4l3.7 5.9h-3.2zm.2-10.3c0-1.4-1.1-2.4-2.6-2.4h-3.6v4.8h3.6c1.5 0 2.6-.9 2.6-2.4z" fill="#000000" data-color="2"></path>
        <path d="M229.5 51.5l-1.1-2.9h-6.9l-1.1 2.9h-3l5.9-15h3.3l5.9 15h-3zM225 39.2l-2.7 7.1h5.4l-2.7-7.1z" fill="#000000" data-color="2"></path>
        <path d="M234.1 51.5v-15h6.6c3.1 0 4.9 2.2 4.9 4.7s-1.8 4.7-4.9 4.7h-4v5.6h-2.6zm8.8-10.3c0-1.4-1.1-2.4-2.6-2.4h-3.6v4.8h3.6c1.5 0 2.6-.9 2.6-2.4z" fill="#000000" data-color="2"></path>
        <path d="M247.8 51.5v-15h2.6v12.7h6.6v2.3h-9.2z" fill="#000000" data-color="2"></path>
        <path d="M259.4 51.5v-15h2.6v15h-2.6z" fill="#000000" data-color="2"></path>
        <path d="M264.5 44c0-4.6 3.4-7.7 7.9-7.7 3 0 4.9 1.6 6 3.4l-2.2 1.1c-.7-1.2-2.2-2.2-3.8-2.2-3 0-5.2 2.3-5.2 5.4s2.2 5.4 5.2 5.4c1.6 0 3.1-.9 3.8-2.2l2.2 1.1c-1.1 1.8-3 3.4-6 3.4-4.4.1-7.9-3-7.9-7.7z" fill="#000000" data-color="2"></path>
        <path d="M290.9 51.5l-1.1-2.9h-6.9l-1.1 2.9h-3l5.9-15h3.3l5.9 15h-3zm-4.5-12.3l-2.7 7.1h5.4l-2.7-7.1z" fill="#000000" data-color="2"></path>
        <path d="M297.6 51.5V38.9h-4.5v-2.3h11.7v2.3h-4.5v12.7h-2.7z" fill="#000000" data-color="2"></path>
        <path d="M307 51.5v-15h2.6v15H307z" fill="#000000" data-color="2"></path>
        <path d="M317.1 51.5l-5.9-15h3l4.5 12.1 4.5-12.1h3l-5.9 15h-3.2z" fill="#000000" data-color="2"></path>
        <path d="M326.8 44c0-4.5 3.2-7.7 7.7-7.7s7.7 3.3 7.7 7.7-3.2 7.7-7.7 7.7c-4.5.1-7.7-3.2-7.7-7.7zm12.6 0c0-3.1-2-5.4-5-5.4s-5 2.3-5 5.4c0 3.1 1.9 5.4 5 5.4 3.1.1 5-2.3 5-5.4z" fill="#000000" data-color="2"></path>
        <path d="M360.9 51.5l-7.8-10.7v10.7h-2.6v-15h2.7l7.7 10.4V36.5h2.6v15h-2.6z" fill="#000000" data-color="2"></path>
        <path d="M365.9 44c0-4.5 3.2-7.7 7.7-7.7s7.7 3.3 7.7 7.7-3.2 7.7-7.7 7.7c-4.5.1-7.7-3.2-7.7-7.7zm12.7 0c0-3.1-2-5.4-5-5.4s-5 2.3-5 5.4c0 3.1 1.9 5.4 5 5.4 3 .1 5-2.3 5-5.4z" fill="#000000" data-color="2"></path>
    </g>
</svg>